<svg width="191" height="191" viewBox="0 0 191 191" fill="none" xmlns="http://www.w3.org/2000/svg">
<g clip-path="url(#clip0_82_54)">
<path d="M155.926 36L145.014 143.987L95.9607 156L47.0427 144.004L36.1415 36H155.926Z" fill="#264DE4"/>
<path d="M96.034 146.818L135.671 137.111L144.997 44.8309H96.034V146.818Z" fill="#2965F1"/>
<path d="M96.034 84.8882H61.1322L62.4762 98.1344H96.034V84.8882Z" fill="#EBEBEB"/>
<path d="M96.034 58.0775H95.9821H58.4316L59.7948 71.324H96.034V58.0775Z" fill="#EBEBEB"/>
<path d="M63.1462 104.758L65.2472 125.556L95.965 133.089L96.034 133.072V119.29L95.9683 119.306L79.2673 115.322L78.1997 104.758H70.0843H63.1462Z" fill="#EBEBEB"/>
<path d="M114.448 98.1345L112.707 115.314L95.9821 119.301V133.083L126.724 125.556L126.95 123.319L130.474 88.4454L130.84 84.8884L133.547 58.0775H95.9821V71.324H117.113L115.748 84.8884H95.9821V98.1345H114.448Z" fill="white"/>
</g>
<defs>
<clipPath id="clip0_82_54">
<rect width="120" height="120" fill="white" transform="translate(36 36)"/>
</clipPath>
</defs>
</svg>
