<svg width="191" height="191" viewBox="0 0 191 191" fill="none" xmlns="http://www.w3.org/2000/svg">
<g clip-path="url(#clip0_82_55)">
<path d="M36 36H156V156H36V36Z" fill="#F7DF1E"/>
<path d="M67.5524 136.281L76.7356 130.723C78.5072 133.864 80.1189 136.522 83.9846 136.522C87.6901 136.522 90.0263 135.073 90.0263 129.434V91.0916H101.303V129.594C101.303 141.274 94.4568 146.59 84.468 146.59C75.4469 146.59 70.2103 141.918 67.5522 136.28" fill="black"/>
<path d="M107.429 135.072L116.611 129.756C119.028 133.703 122.169 136.603 127.727 136.603C132.4 136.603 135.379 134.267 135.379 131.045C135.379 127.178 132.318 125.809 127.163 123.554L124.345 122.345C116.208 118.882 110.811 114.532 110.811 105.349C110.811 96.8912 117.255 90.4468 127.325 90.4468C134.494 90.4468 139.649 92.9442 143.354 99.4689L134.574 105.107C132.64 101.644 130.547 100.275 127.325 100.275C124.022 100.275 121.928 102.369 121.928 105.107C121.928 108.49 124.022 109.86 128.855 111.955L131.674 113.163C141.259 117.271 146.657 121.459 146.657 130.884C146.657 141.034 138.682 146.591 127.969 146.591C117.497 146.591 110.731 141.597 107.429 135.072Z" fill="black"/>
</g>
<defs>
<clipPath id="clip0_82_55">
<rect x="36" y="36" width="120" height="120" rx="10" fill="white"/>
</clipPath>
</defs>
</svg>
