<svg width="191" height="191" viewBox="0 0 191 191" fill="none" xmlns="http://www.w3.org/2000/svg">
<g clip-path="url(#clip0_82_56)">
<mask id="mask0_82_56" style="mask-type:luminance" maskUnits="userSpaceOnUse" x="35" y="36" width="121" height="120">
<path d="M120.764 155.339C121.715 155.713 122.732 155.886 123.752 155.847C124.772 155.808 125.774 155.558 126.694 155.112L151.303 143.178C152.571 142.562 153.64 141.599 154.388 140.398C155.136 139.196 155.532 137.807 155.531 136.389V55.4646C155.531 52.5732 153.891 49.937 151.303 48.6803L126.694 36.7464C125.303 36.0721 123.738 35.8503 122.216 36.1118C120.694 36.3734 119.291 37.1053 118.2 38.2063L71.0906 81.5197L50.5688 65.8205C49.6434 65.1117 48.5009 64.752 47.3398 64.8038C46.1786 64.8555 45.0722 65.3156 44.2125 66.1039L37.6313 72.1417C37.1178 72.6117 36.7073 73.1846 36.4262 73.8237C36.145 74.4627 35.9993 75.1539 35.9984 75.853C35.9975 76.5521 36.1415 77.2437 36.421 77.8835C36.7006 78.5233 37.1096 79.0972 37.6219 79.5685L55.4203 95.9291L37.6219 112.294C37.1096 112.766 36.7006 113.34 36.421 113.979C36.1415 114.619 35.9975 115.311 35.9984 116.01C35.9993 116.709 36.145 117.4 36.4262 118.039C36.7073 118.678 37.1178 119.251 37.6313 119.721L44.2125 125.754C45.0722 126.543 46.1786 127.003 47.3398 127.054C48.5009 127.106 49.6434 126.747 50.5688 126.038L71.0906 110.339L118.2 153.661C118.929 154.397 119.802 154.971 120.764 155.348V155.339ZM125.667 68.5795L89.9203 95.9244L125.667 123.279V68.5748V68.5795Z" fill="white"/>
</mask>
<g mask="url(#mask0_82_56)">
<path d="M151.373 48.6945L126.75 36.7417C125.359 36.068 123.794 35.8467 122.272 36.1082C120.751 36.3697 119.347 37.1012 118.256 38.2016L37.6313 112.29C37.1184 112.76 36.7086 113.334 36.4283 113.973C36.1479 114.613 36.0031 115.304 36.0031 116.003C36.0031 116.702 36.1479 117.394 36.4283 118.033C36.7086 118.672 37.1184 119.246 37.6313 119.717L44.2219 125.75C45.9984 127.375 48.6703 127.498 50.5828 126.033L147.67 51.7984C148.404 51.2372 149.278 50.8935 150.195 50.806C151.111 50.7185 152.034 50.8906 152.859 51.3031C153.684 51.7156 154.378 52.352 154.863 53.1407C155.349 53.9293 155.606 54.8389 155.606 55.7669V55.4835C155.606 52.5874 153.966 49.9512 151.373 48.6945Z" fill="#0065A9"/>
</g>
<mask id="mask1_82_56" style="mask-type:luminance" maskUnits="userSpaceOnUse" x="35" y="36" width="121" height="120">
<path d="M120.764 155.339C121.715 155.713 122.732 155.886 123.752 155.847C124.772 155.808 125.774 155.558 126.694 155.112L151.303 143.178C152.571 142.562 153.64 141.599 154.388 140.398C155.136 139.196 155.532 137.807 155.531 136.389V55.4646C155.531 52.5732 153.891 49.937 151.303 48.6803L126.694 36.7464C125.303 36.0721 123.738 35.8503 122.216 36.1118C120.694 36.3734 119.291 37.1053 118.2 38.2063L71.0906 81.5197L50.5688 65.8205C49.6434 65.1117 48.5009 64.752 47.3398 64.8038C46.1786 64.8555 45.0722 65.3156 44.2125 66.1039L37.6313 72.1417C37.1178 72.6117 36.7073 73.1846 36.4262 73.8237C36.145 74.4627 35.9993 75.1539 35.9984 75.853C35.9975 76.5521 36.1415 77.2437 36.421 77.8835C36.7006 78.5233 37.1096 79.0972 37.6219 79.5685L55.4203 95.9291L37.6219 112.294C37.1096 112.766 36.7006 113.34 36.421 113.979C36.1415 114.619 35.9975 115.311 35.9984 116.01C35.9993 116.709 36.145 117.4 36.4262 118.039C36.7073 118.678 37.1178 119.251 37.6313 119.721L44.2125 125.754C45.0722 126.543 46.1786 127.003 47.3398 127.054C48.5009 127.106 49.6434 126.747 50.5688 126.038L71.0906 110.339L118.2 153.661C118.929 154.397 119.802 154.971 120.764 155.348V155.339ZM125.667 68.5795L89.9203 95.9244L125.667 123.279V68.5748V68.5795Z" fill="white"/>
</mask>
<g mask="url(#mask1_82_56)">
<path d="M151.373 143.159L126.745 155.112C125.354 155.785 123.789 156.007 122.268 155.745C120.746 155.484 119.343 154.752 118.252 153.652L37.6266 79.5638C37.1137 79.0931 36.7039 78.5197 36.4236 77.8803C36.1432 77.2408 35.9984 76.5495 35.9984 75.8504C35.9984 75.1513 36.1432 74.4599 36.4236 73.8205C36.7039 73.181 37.1137 72.6076 37.6266 72.137L44.2172 66.1039C45.9937 64.4787 48.6656 64.3559 50.5781 65.8205L147.67 140.055C148.404 140.616 149.278 140.96 150.195 141.048C151.111 141.135 152.034 140.963 152.859 140.55C153.684 140.138 154.378 139.502 154.863 138.713C155.349 137.924 155.606 137.015 155.606 136.087V136.37C155.606 139.266 153.966 141.898 151.373 143.159Z" fill="#007ACC"/>
</g>
<mask id="mask2_82_56" style="mask-type:luminance" maskUnits="userSpaceOnUse" x="35" y="36" width="121" height="120">
<path d="M120.764 155.339C121.715 155.713 122.732 155.886 123.752 155.847C124.772 155.808 125.774 155.558 126.694 155.112L151.303 143.178C152.571 142.562 153.64 141.599 154.388 140.398C155.136 139.196 155.532 137.807 155.531 136.389V55.4646C155.531 52.5732 153.891 49.937 151.303 48.6803L126.694 36.7464C125.303 36.0721 123.738 35.8503 122.216 36.1118C120.694 36.3734 119.291 37.1053 118.2 38.2063L71.0906 81.5197L50.5688 65.8205C49.6434 65.1117 48.5009 64.752 47.3398 64.8038C46.1786 64.8555 45.0722 65.3156 44.2125 66.1039L37.6313 72.1417C37.1178 72.6117 36.7073 73.1846 36.4262 73.8237C36.145 74.4627 35.9993 75.1539 35.9984 75.853C35.9975 76.5521 36.1415 77.2437 36.421 77.8835C36.7006 78.5233 37.1096 79.0972 37.6219 79.5685L55.4203 95.9291L37.6219 112.294C37.1096 112.766 36.7006 113.34 36.421 113.979C36.1415 114.619 35.9975 115.311 35.9984 116.01C35.9993 116.709 36.145 117.4 36.4262 118.039C36.7073 118.678 37.1178 119.251 37.6313 119.721L44.2125 125.754C45.0722 126.543 46.1786 127.003 47.3398 127.054C48.5009 127.106 49.6434 126.747 50.5688 126.038L71.0906 110.339L118.2 153.661C118.929 154.397 119.802 154.971 120.764 155.348V155.339ZM125.667 68.5795L89.9203 95.9244L125.667 123.279V68.5748V68.5795Z" fill="white"/>
</mask>
<g mask="url(#mask2_82_56)">
<path d="M126.67 155.117C125.279 155.791 123.714 156.014 122.191 155.753C120.669 155.492 119.264 154.761 118.172 153.661C120.928 156.439 125.644 154.474 125.644 150.543V41.3244C125.644 37.3984 120.928 35.4283 118.172 38.2063C119.264 37.1063 120.669 36.3754 122.191 36.1148C123.714 35.8541 125.279 36.0765 126.67 36.7511L151.294 48.685C152.562 49.2989 153.633 50.2614 154.383 51.4616C155.132 52.6618 155.53 54.051 155.531 55.4693V136.398C155.531 139.29 153.891 141.926 151.298 143.183L126.675 155.117H126.67Z" fill="#1F9CF0"/>
</g>
<mask id="mask3_82_56" style="mask-type:luminance" maskUnits="userSpaceOnUse" x="35" y="36" width="121" height="120">
<path d="M120.764 155.339C121.715 155.713 122.732 155.886 123.752 155.847C124.772 155.808 125.774 155.558 126.694 155.112L151.303 143.178C152.571 142.562 153.64 141.599 154.388 140.398C155.136 139.196 155.532 137.807 155.531 136.389V55.4646C155.531 52.5732 153.891 49.937 151.303 48.6803L126.694 36.7464C125.303 36.0721 123.738 35.8503 122.216 36.1118C120.694 36.3734 119.291 37.1053 118.2 38.2063L71.0906 81.5197L50.5688 65.8205C49.6434 65.1117 48.5009 64.752 47.3398 64.8038C46.1786 64.8555 45.0722 65.3156 44.2125 66.1039L37.6313 72.1417C37.1178 72.6117 36.7073 73.1846 36.4262 73.8237C36.145 74.4627 35.9993 75.1539 35.9984 75.853C35.9975 76.5521 36.1415 77.2437 36.421 77.8835C36.7006 78.5233 37.1096 79.0972 37.6219 79.5685L55.4203 95.9291L37.6219 112.294C37.1096 112.766 36.7006 113.34 36.421 113.979C36.1415 114.619 35.9975 115.311 35.9984 116.01C35.9993 116.709 36.145 117.4 36.4262 118.039C36.7073 118.678 37.1178 119.251 37.6313 119.721L44.2125 125.754C45.0722 126.543 46.1786 127.003 47.3398 127.054C48.5009 127.106 49.6434 126.747 50.5688 126.038L71.0906 110.339L118.2 153.661C118.929 154.397 119.802 154.971 120.764 155.348V155.339ZM125.667 68.5795L89.9203 95.9244L125.667 123.279V68.5748V68.5795Z" fill="white"/>
</mask>
<g mask="url(#mask3_82_56)">
<path d="M120.764 155.339C121.715 155.713 122.732 155.886 123.752 155.847C124.772 155.808 125.774 155.558 126.694 155.112L151.303 143.178C152.571 142.562 153.64 141.599 154.388 140.398C155.136 139.196 155.532 137.807 155.531 136.389V55.4646C155.531 52.5732 153.891 49.937 151.303 48.6803L126.694 36.7464C125.303 36.0721 123.738 35.8503 122.216 36.1118C120.694 36.3734 119.291 37.1053 118.2 38.2063L71.0906 81.5197L50.5688 65.8205C49.6434 65.1117 48.5009 64.752 47.3398 64.8038C46.1786 64.8555 45.0722 65.3156 44.2125 66.1039L37.6313 72.1417C37.1178 72.6117 36.7073 73.1846 36.4262 73.8237C36.145 74.4627 35.9993 75.1539 35.9984 75.853C35.9975 76.5521 36.1415 77.2437 36.421 77.8835C36.7006 78.5233 37.1096 79.0972 37.6219 79.5685L55.4203 95.9291L37.6219 112.294C37.1096 112.766 36.7006 113.34 36.421 113.979C36.1415 114.619 35.9975 115.311 35.9984 116.01C35.9993 116.709 36.145 117.4 36.4262 118.039C36.7073 118.678 37.1178 119.251 37.6313 119.721L44.2125 125.754C45.0722 126.543 46.1786 127.003 47.3398 127.054C48.5009 127.106 49.6434 126.747 50.5688 126.038L71.0906 110.339L118.2 153.661C118.929 154.397 119.803 154.971 120.764 155.348V155.339ZM125.667 68.5795L89.9203 95.9244L125.667 123.279V68.5748V68.5795Z" fill="url(#paint0_linear_82_56)" fill-opacity="0.25"/>
</g>
</g>
<defs>
<linearGradient id="paint0_linear_82_56" x1="6012.64" y1="36.0051" x2="6012.64" y2="12020.7" gradientUnits="userSpaceOnUse">
<stop stop-color="white"/>
<stop offset="1" stop-color="white" stop-opacity="0"/>
</linearGradient>
<clipPath id="clip0_82_56">
<rect width="120" height="120" fill="white" transform="translate(36 36)"/>
</clipPath>
</defs>
</svg>
